<?xml version="1.0" encoding="utf-8"?>
<svg width="24" height="30" viewBox="0 0 24 30" fill="none" xmlns="http://www.w3.org/2000/svg">
  <path d="M9 0L7.5 1.5L0 1.5L0 4.5L1.5 4.5C1.5 4.5 1.5 27 1.5 27C1.5 27.7833 1.78699 28.5819 2.35254 29.1475C2.91809 29.713 3.71667 30 4.5 30C4.5 30 19.5 30 19.5 30C20.2833 30 21.0819 29.713 21.6475 29.1475C22.213 28.5819 22.5 27.7833 22.5 27C22.5 27 22.5 4.5 22.5 4.5L24 4.5L24 1.5L16.5 1.5L15 0L9 0L9 0ZM4.5 4.5L19.5 4.5L19.5 27L4.5 27L4.5 4.5L4.5 4.5ZM7.5 7.5L7.5 24L10.5 24L10.5 7.5L7.5 7.5L7.5 7.5ZM13.5 7.5L13.5 24L16.5 24L16.5 7.5L13.5 7.5L13.5 7.5Z" fill="#F31111" />
</svg>